<?xml version="1.0" standalone="no"?>
<!DOCTYPE svg PUBLIC "-//W3C//DTD SVG 20010904//EN"
 "http://www.w3.org/TR/2001/REC-SVG-20010904/DTD/svg10.dtd">
<svg version="1.0" xmlns="http://www.w3.org/2000/svg"
 width="750.000000pt" height="750.000000pt" viewBox="0 0 750.000000 750.000000"
 preserveAspectRatio="xMidYMid meet">
<metadata>
Created by potrace 1.11, written by Peter Selinger 2001-2013
</metadata>
<g transform="translate(0.000000,750.000000) scale(0.100000,-0.100000)"
fill="#000000" stroke="none">
<path d="M3538 7495 c-2 -2 -43 -6 -93 -9 -124 -9 -262 -28 -447 -61 -120 -22
-488 -129 -583 -170 -16 -7 -75 -32 -130 -55 -585 -249 -1079 -628 -1489
-1140 -44 -56 -133 -180 -181 -256 -32 -49 -66 -101 -76 -116 -11 -15 -19 -30
-19 -33 0 -3 -11 -23 -24 -44 -55 -86 -172 -329 -235 -487 -57 -143 -143 -420
-166 -532 -40 -199 -53 -272 -61 -342 -3 -30 -8 -68 -10 -85 -26 -187 -25
-651 2 -855 6 -53 32 -216 38 -246 2 -12 7 -37 10 -55 11 -70 66 -278 104
-399 203 -638 591 -1232 1086 -1665 37 -33 78 -69 91 -80 39 -35 135 -107 249
-188 95 -67 158 -107 299 -191 76 -45 432 -216 450 -216 2 0 22 -8 43 -17 22
-9 41 -17 44 -18 3 -1 68 -22 145 -47 124 -41 294 -89 365 -101 14 -3 36 -8
50 -11 14 -3 39 -8 55 -11 17 -3 55 -9 85 -15 177 -31 355 -45 610 -45 181 0
368 8 426 19 10 2 45 7 78 11 244 29 677 140 843 216 24 10 47 19 53 19 6 0
18 4 28 10 9 5 42 20 72 33 227 100 521 267 686 391 23 17 54 40 70 51 15 11
32 25 38 30 6 6 29 23 51 40 66 49 204 174 310 280 409 409 716 906 901 1455
32 97 89 301 100 360 3 14 7 33 10 42 9 29 41 213 50 282 3 23 7 56 9 75 26
205 26 659 0 861 -2 19 -7 58 -11 85 -7 60 -38 230 -54 300 -7 28 -14 61 -16
75 -16 81 -112 379 -167 515 -56 140 -169 370 -224 457 -12 21 -23 40 -23 43
0 3 -8 18 -19 33 -10 15 -49 74 -87 132 -173 264 -432 562 -654 750 -36 30
-74 63 -85 73 -30 28 -232 178 -300 224 -249 167 -573 328 -855 425 -131 45
-334 103 -430 122 -14 3 -36 8 -50 11 -26 5 -49 10 -140 25 -90 15 -163 24
-285 36 -56 6 -532 13 -537 9z"/>
</g>
</svg>
